<svg xmlns="http://www.w3.org/2000/svg" width="55.784" height="50.64" viewBox="0 0 55.784 50.64">
  <path id="Shape" d="M60.451,16.51l3.8-6.927H101.3l.951,1.73,2.852,5.2Zm5.257-9.578L69.514,0H96.034l3.806,6.933ZM96.036,45.257H74.369a1.1,1.1,0,0,0-.962.568l-2.64,4.815H63.238l6.21-11.313a2.089,2.089,0,0,1,1.689-.93L99.8,38.4l-3.765,6.859Zm9.039-16.467-3.819,6.959H69.043a1.1,1.1,0,0,0-.951.537l-2.6,4.738H57.96l6.209-11.307a2.089,2.089,0,0,1,1.689-.93ZM63.724,26.144a1.093,1.093,0,0,0-.949.568L60.2,31.4H52.672l6.209-11.31a2.09,2.09,0,0,1,1.689-.931l45.984.01,1.9,3.466-1.925,3.511H63.722Z" transform="translate(-52.672)" fill="#fdb813" fill-rule="evenodd"/>
</svg>
