<svg xmlns="http://www.w3.org/2000/svg" viewBox="0 0 688.04 437.99"><defs><style>.cls-1{fill:#e6e6e6;}.cls-2{fill:#f9d60c;}.cls-13,.cls-3,.cls-4,.cls-6{fill:none;stroke-miterlimit:10;}.cls-3,.cls-4,.cls-6{stroke:#fdb815;}.cls-4{stroke-dasharray:8.18 8.18;}.cls-5{fill:#fdb815;}.cls-6{stroke-dasharray:7.92 7.92;}.cls-15,.cls-7{fill:#006305;}.cls-8{fill:#c10c0c;}.cls-9{fill:#304351;}.cls-10,.cls-12{fill:#fff;}.cls-11{fill:#c6d0dc;}.cls-12{font-size:36.02px;font-family:Poppins-Bold, Poppins;letter-spacing:0.2em;}.cls-12,.cls-15{font-weight:700;}.cls-13{stroke:#fff;}.cls-14{fill:#ffd097;}.cls-15{font-size:17.24px;font-family:Gotham-Bold, Gotham;letter-spacing:0.2em;}</style></defs><g id="Layer_2" data-name="Layer 2"><g id="OBJECT"><path class="cls-1" d="M298.06,138.67s-4,7.88,11.29,3.49,23.59,1.36,22.19,6.39-4.3,20,10.6,27.15S361,166.85,359,160.61s4.37-20.39,7.53-18.45,26.43,25.11,52-3.49C418.53,138.67,356.41,126.91,298.06,138.67Z"/><path class="cls-1" d="M427.29,351.38c-2.68,3.45-3.42,10.18-2.65,17.77l61.74-101.33a24.65,24.65,0,0,1-2.2-3.53c-10.89-21-6.05-33.11-8.47-45.25s-25.19,7.28-43.46-6.08-24.7-26.34-41.28-16.77c0,0-2.05,6.33-12.56,15.19-5.62,4.73-32.05,2.67-36.27,10.29C330,243.52,349.65,249.22,346,273s48.58.61,60.69,3.7-12.11,36.66-3.64,47.8S435.76,340.45,427.29,351.38Z"/><path class="cls-1" d="M158.45,188s64.82-40.65,119.84-45.83c0,0,8.2,10.44-4.79,16.87s-14.88,15.85-10.7,24.2,18.74-13,28.13-14.61,16.61,22.86,30.92,19.37,33.86,24.48,24.17,27-30.39-4.24-37.64,7.73-3,50.87-9,49.09-5.6-28.06-14.3-28.06-21.38,10.93-25.33,22.87-3.79,33.62,4.83,37.42,19.6-15.2,26.38-12.82-4.41,18.63,0,24.74,40.88-12.68,48.75-7.63,17.53,27.2,34.85,31.15,38,16,25.3,28.18-27,25-34.87,44.68-9.5,25.61-9.5,25.61H308.38s3.7-9,8-25.63-8-10.33-14.52-22.2S296,368.8,290.93,358.51s14.25-27.12,7.13-34.81-16.93,6.33-16.95-2.38-1.88-16.42-4.9-12.95-12.31,10.74-27.15-11.69-19.68-.92-33.29-8.53Z"/><path class="cls-2" d="M346,127.24c77.62,0,147.38,21.62,195.51,56-42-40.62-113.91-67.4-195.51-67.4s-153.48,26.78-195.52,67.4C198.63,148.86,268.39,127.24,346,127.24Z"/><path class="cls-3" d="M346,136s.59-1.35,1.73-3.6"/><path class="cls-4" d="M351.69,125.21c8.46-14.29,25.87-37.55,48.84-35.71,31.7,2.53,48.14,60.06,53.31,125.7"/><path class="cls-3" d="M454.15,219.29l.27,4"/><polygon class="cls-5" points="451.09 188.27 446.14 188.57 448.5 186.55 450.87 184.53 453.46 186.26 456.05 187.98 451.09 188.27"/><polygon class="cls-5" points="373.4 98.22 376.71 101.92 373.66 101.32 370.61 100.72 370.35 97.62 370.09 94.52 373.4 98.22"/><path class="cls-3" d="M204.94,174.63s.55-1.33,1.62-3.65"/><path class="cls-6" d="M210,163.85c10.2-20.08,35.32-61.85,71.11-69.6,36.87-8,58,25.37,65.58,40.64"/><path class="cls-3" d="M348.38,138.47c1,2.3,1.54,3.69,1.54,3.69"/><polygon class="cls-5" points="230.56 130.22 226.72 127.07 229.83 127.2 232.94 127.32 233.67 130.35 234.4 133.37 230.56 130.22"/><polygon class="cls-5" points="324.27 105.44 327.46 101.64 327.3 104.74 327.14 107.85 324.11 108.55 321.08 109.24 324.27 105.44"/><path class="cls-7" d="M356.26,136c0,5.66-10.24,15.64-10.24,15.64s-10.25-10-10.25-15.64a10.25,10.25,0,0,1,20.49,0Z"/><path class="cls-5" d="M351.9,136a5.89,5.89,0,1,1-5.88-5.88A5.89,5.89,0,0,1,351.9,136Z"/><path class="cls-8" d="M215.19,173c0,5.66-10.25,15.64-10.25,15.64s-10.24-10-10.24-15.64a10.25,10.25,0,0,1,20.49,0Z"/><path class="cls-5" d="M210.83,173a5.89,5.89,0,1,1-5.89-5.88A5.89,5.89,0,0,1,210.83,173Z"/><path class="cls-9" d="M464.66,223.28c0,5.66-10.24,15.64-10.24,15.64s-10.24-10-10.24-15.64a10.24,10.24,0,0,1,20.48,0Z"/><path class="cls-5" d="M460.31,223.28a5.89,5.89,0,1,1-5.89-5.88A5.89,5.89,0,0,1,460.31,223.28Z"/><ellipse class="cls-1" cx="584.43" cy="429.36" rx="103.61" ry="8.63"/><ellipse class="cls-1" cx="107.6" cy="429.36" rx="103.61" ry="8.63"/><polygon class="cls-5" points="268.62 402.14 132.98 406.01 116.59 378.19 98.73 347.89 12.94 202.32 90.8 199.48 128.05 198.11 147.61 197.4 164.99 226.81 194.45 276.67 268.62 402.14"/><path class="cls-10" d="M120.85,349.06c-4.56,8.39-5.42,18.63-4.26,29.13l-17.86-30.3c11.76-23.32,27.05-41.16,27.66-46.94,1.24-11.88-29.67-28.78-36.24-56.75-2.53-10.73-1.54-27.79.65-44.72l37.25-1.37c-7.44,25.85-11.35,56.1,2,75.11C152.17,304.64,137.76,318,120.85,349.06Z"/><path class="cls-10" d="M197.84,376.9c-4.15,7.66-5.48,17.27-5.09,27.41l-30.19.86c10.13-32.1,34.56-57.82,35.34-65.25,1.23-11.88-28-33.1-34.57-61.08-2.89-12.29-1.17-32.84,1.66-52l29.46,49.86c.26,11.72,2.76,22.6,8.81,31.2C225.36,339.28,214.76,345.8,197.84,376.9Z"/><path class="cls-9" d="M151.58,195.1c-4.86-8.26-16.39-14.73-25.75-14.46L19.27,183.8c-9.36.27-13,7.19-8.14,15.44L13,202.32l139.87-5.11Z"/><path class="cls-9" d="M134.3,408.26,133,406c1.17.06,140.52-4,140.52-4l1.25,2.11c4.86,8.26,1.21,15.18-8.14,15.45L160,422.71C150.69,423,139.16,416.53,134.3,408.26Z"/><polygon class="cls-9" points="152.82 197.21 273.5 402 268.62 402.14 147.61 197.4 152.82 197.21"/><polygon class="cls-9" points="17.87 202.14 138.1 405.89 132.98 406.01 12.94 202.32 17.87 202.14"/><path class="cls-10" d="M27.12,196.21c2.2-.06,3.05-1.69,1.91-3.63a7.48,7.48,0,0,0-6-3.39c-2.2.06-3,1.69-1.91,3.62A7.46,7.46,0,0,0,27.12,196.21Z"/><path class="cls-10" d="M43.94,195c2.19-.07,3.05-1.69,1.91-3.63a7.48,7.48,0,0,0-6-3.39c-2.2.06-3.06,1.69-1.92,3.62A7.53,7.53,0,0,0,43.94,195Z"/><ellipse class="cls-10" cx="211.88" cy="412.38" rx="5.25" ry="8.89" transform="translate(-251.13 388.53) rotate(-59.86)"/><path class="cls-11" d="M9.57,189.19h0l0,0Z"/><path class="cls-5" d="M266.61,419.56,160,422.71c-9.35.29-20.88-6.18-25.74-14.45l-123.17-209c-2.1-3.57-2.61-6.88-1.76-9.52L4.66,202.65c-1.22,2.74-.82,6.35,1.48,10.26l123.17,209c4.86,8.26,16.38,14.73,25.74,14.45l106.57-3.15c5.31-.16,8.77-2.46,9.89-5.92l4.7-12.89C274.84,417.45,271.51,419.42,266.61,419.56Z"/><polygon class="cls-5" points="423.41 402.14 559.05 406.01 575.44 378.19 593.3 347.89 679.09 202.32 601.24 199.48 563.98 198.11 544.42 197.4 527.04 226.81 497.58 276.67 423.41 402.14"/><path class="cls-10" d="M571.18,349.06c4.56,8.39,5.42,18.63,4.26,29.13l17.86-30.3c-11.76-23.32-27-41.16-27.66-46.94-1.24-11.88,29.67-28.78,36.24-56.75,2.53-10.73,1.54-27.79-.65-44.72L564,198.11c7.44,25.85,11.35,56.1-2,75.11C539.86,304.64,554.27,318,571.18,349.06Z"/><path class="cls-10" d="M494.19,376.9c4.16,7.66,5.48,17.27,5.09,27.41l30.19.86c-10.13-32.1-34.56-57.82-35.34-65.25-1.23-11.88,28-33.1,34.57-61.08,2.89-12.29,1.17-32.84-1.66-52l-29.46,49.86c-.26,11.72-2.76,22.6-8.81,31.2C466.67,339.28,477.27,345.8,494.19,376.9Z"/><path class="cls-9" d="M540.45,195.1c4.87-8.26,16.39-14.73,25.75-14.46l106.56,3.16c9.36.27,13,7.19,8.14,15.44l-1.82,3.08-139.87-5.11Z"/><path class="cls-9" d="M557.73,408.26l1.32-2.25c-1.17.06-140.52-4-140.52-4l-1.25,2.11c-4.86,8.26-1.21,15.18,8.14,15.45L532,422.71C541.34,423,552.87,416.53,557.73,408.26Z"/><polygon class="cls-9" points="539.21 197.21 418.53 402 423.41 402.14 544.42 197.4 539.21 197.21"/><polygon class="cls-9" points="674.16 202.14 553.93 405.89 559.05 406.01 679.09 202.32 674.16 202.14"/><path class="cls-10" d="M664.91,196.21c-2.2-.06-3-1.69-1.91-3.63a7.48,7.48,0,0,1,6-3.39c2.2.06,3.05,1.69,1.91,3.62A7.46,7.46,0,0,1,664.91,196.21Z"/><path class="cls-10" d="M648.09,195c-2.19-.07-3.05-1.69-1.91-3.63a7.48,7.48,0,0,1,6-3.39c2.2.06,3.06,1.69,1.92,3.62A7.53,7.53,0,0,1,648.09,195Z"/><ellipse class="cls-10" cx="480.15" cy="412.38" rx="8.89" ry="5.25" transform="translate(-142.15 296.87) rotate(-30.14)"/><path class="cls-11" d="M682.46,189.19h0l0,0Z"/><path class="cls-5" d="M425.42,419.56,532,422.71c9.35.29,20.88-6.18,25.74-14.45l123.17-209c2.1-3.57,2.61-6.88,1.76-9.52l4.71,12.93c1.22,2.74.82,6.35-1.48,10.26l-123.17,209c-4.86,8.26-16.38,14.73-25.74,14.45l-106.57-3.15c-5.31-.16-8.77-2.46-9.89-5.92l-4.7-12.89C417.19,417.45,420.52,419.42,425.42,419.56Z"/><path class="cls-5" d="M309.92,211.38s16.07,44.71,11.69,47.68-25.71-5.62-30.68-34.53Z"/><path class="cls-5" d="M300.27,222.76s4.08,47.34-.92,49.09-23.41-12-20.81-41.24Z"/><path class="cls-5" d="M289.9,228.65S274,273.43,268.75,273s-16.34-20.63-1.87-46.16Z"/><path class="cls-9" d="M249.06,208.46s44.79-46.76,65.44-45.3,47.25,2.93,65.59-14.61l15.58,70.81s-24.44,14.42-68.67,15.4c-15,.33-47.24,46.74-47.24,46.74Z"/><text class="cls-12" transform="translate(309.33 215.09) rotate(-18.61) scale(0.91 1)">$</text><path class="cls-13" d="M306.91,177.59c-28.68,9.84-17.3,55.69,16.55,47.39C356.19,217,342.9,165.25,306.91,177.59Z"/><path class="cls-13" d="M256,209.79s36.54-36.16,56-40c10.33-2.07,44.88,6.33,63.38-9l12.22,56.86S360,227.84,331.05,229.64c-18.3,1.14-28.8,13.89-49,37Z"/><path class="cls-14" d="M37.39,234.58s53.2,15.29,140.48-5.67l24.29,51.63S142.38,316.89,85.05,316Z"/><path class="cls-14" d="M177.87,228.91s51.79-45.4,72.53-51.92,30.74,2.56,30.74,2.56l-18.29,15.54s35.09,7.52,59.52,16.29c15.32,5.5-9.8,31.63-56.58,24.12,0,0-9.42,46-63.63,45Z"/><path class="cls-13" d="M262.85,195.09s-14.6-5.46-26.07,3"/><path class="cls-13" d="M265.79,235.5s-4.05,7.1-16.73,8.68"/><path class="cls-8" d="M165.12,313.37s58.55,62.24,157.59,10l17,51.24S198.62,423.92,165.12,313.37Z"/><polygon class="cls-8" points="372.12 331.32 353.87 364.48 335.63 397.64 316.84 353 298.06 308.37 335.08 319.84 372.12 331.32"/><path class="cls-8" d="M542.45,281.49s-6.17-85.23-116-107.15l19.15-50.46S586.19,174.58,542.45,281.49Z"/><polygon class="cls-8" points="393.15 136.99 428.23 122.77 463.3 108.55 449.72 155.03 436.14 201.51 414.65 169.25 393.15 136.99"/><rect class="cls-2" x="340.46" y="237.68" width="118.73" height="70.55" transform="translate(119.4 -121.67) rotate(20.28)"/><text class="cls-15" transform="matrix(0.86, 0.32, -0.35, 0.94, 369.1, 264.03)">FOREX</text><rect class="cls-13" x="361.59" y="257.38" width="86.61" height="26.88" transform="translate(118.97 -123.56) rotate(20.28)"/><path class="cls-14" d="M594.11,337.8s-51.7-13.19-95.27-41.12l-27.58,49.6s43,39.09,87.79,50.93Z"/><path class="cls-14" d="M498.84,296.68s-24.55-45.13-36.33-54.13-56.36-26.66-65-19,13.79,21.11,27,23.92,23.74,45,19.63,53.36c-6,12.23-42.05-6-49.29.65-9.63,8.84,8.88,23.79,33.64,34.1a148.36,148.36,0,0,0,42.8,10.71Z"/><polygon class="cls-9" points="660.69 165.54 650.83 155.68 660.69 155.68 660.69 165.54"/><polygon class="cls-8" points="75.52 84.7 65.66 74.83 75.52 74.83 75.52 84.7"/><polygon class="cls-8" points="122.76 135.18 108.81 135.18 115.78 142.16 122.76 135.18"/><polygon class="cls-2" points="9.86 139.66 0 149.53 0 139.66 9.86 139.66"/><rect class="cls-2" x="475.95" width="6.86" height="6.86"/><rect class="cls-9" x="188.8" y="98.21" width="6.86" height="6.86"/><rect class="cls-2" x="31.66" y="392.54" width="6.86" height="6.86"/><rect class="cls-9" x="9.54" y="359.4" width="6.86" height="6.86" transform="translate(-252.76 115.44) rotate(-45)"/><rect class="cls-9" x="584.81" y="68.02" width="6.86" height="6.86" transform="translate(121.77 436.87) rotate(-45)"/><rect class="cls-8" x="554.1" y="102.33" width="3.43" height="3.43" transform="translate(89.23 423.49) rotate(-45)"/><rect class="cls-2" x="132.18" y="155.6" width="6.86" height="6.86" transform="translate(-72.73 142.47) rotate(-45)"/><rect class="cls-9" x="5.52" y="39.04" width="12.16" height="12.16" transform="translate(-28.5 21.42) rotate(-45)"/><rect class="cls-7" x="648.96" y="396.55" width="6.86" height="6.86"/><path class="cls-7" d="M532.08,158.64a2,2,0,1,1-2-2A2,2,0,0,1,532.08,158.64Z"/><path class="cls-2" d="M686,133.54a2,2,0,1,1-2-2A2,2,0,0,1,686,133.54Z"/><path class="cls-2" d="M624.42,369.69a2,2,0,1,1-2-2A2,2,0,0,1,624.42,369.69Z"/><path class="cls-7" d="M44.87,331.91a2,2,0,1,1-2-2A2,2,0,0,1,44.87,331.91Z"/><path class="cls-7" d="M44,122.26a2.87,2.87,0,1,1-2.86-2.86A2.86,2.86,0,0,1,44,122.26Z"/><circle class="cls-7" cx="132.98" cy="31.03" r="2.86"/></g></g></svg>